<svg aria-hidden="true" version="1.1" xmlns="http://www.w3.org/2000/svg" xmlns:xlink="http://www.w3.org/1999/xlink">
<defs>
<symbol id="icon-cancel" viewBox="0 0 32 32">
<title>cancel</title>
<path d="M28.667 16c0 6.996-5.671 12.667-12.667 12.667s-12.667-5.671-12.667-12.667c0-6.996 5.671-12.667 12.667-12.667s12.667 5.671 12.667 12.667z"></path>
<path fill="none" stroke="#fff" stroke-linejoin="miter" stroke-linecap="round" stroke-miterlimit="4" stroke-width="1.3333" d="M11.333 11.333l9.333 9.333"></path>
<path fill="none" stroke="#fff" stroke-linejoin="miter" stroke-linecap="round" stroke-miterlimit="4" stroke-width="1.3333" d="M20.667 11.333l-9.333 9.333"></path>
</symbol>
<symbol id="icon-cancel-error" viewBox="0 0 32 32">
<title>cancel-error</title>
<path fill="#fe1010" d="M28.667 16c0 6.996-5.671 12.667-12.667 12.667s-12.667-5.671-12.667-12.667c0-6.996 5.671-12.667 12.667-12.667s12.667 5.671 12.667 12.667z"></path>
<path fill="none" stroke="#fff" stroke-linejoin="miter" stroke-linecap="round" stroke-miterlimit="4" stroke-width="1.3333" d="M11.333 11.333l9.333 9.333"></path>
<path fill="none" stroke="#fff" stroke-linejoin="miter" stroke-linecap="round" stroke-miterlimit="4" stroke-width="1.3333" d="M20.667 11.333l-9.333 9.333"></path>
</symbol>
<symbol id="icon-external-links" viewBox="0 0 34 32">
<title>external-links</title>
<path fill="none" stroke-linejoin="round" stroke-linecap="round" stroke-miterlimit="4" stroke-width="2" d="M15.4 3.199h-6.4c-2.651 0-4.8 2.149-4.8 4.8v16c0 2.651 2.149 4.8 4.8 4.8h16c2.651 0 4.8-2.149 4.8-4.8v-6.4M21.799 3.2l8.001-0M29.8 3.199v7.2M29.8 3.199l-13.601 13.6"></path>
</symbol>
<symbol id="icon-search" viewBox="0 0 32 32">
<title>search</title>
<path fill="none" stroke-linejoin="miter" stroke-linecap="round" stroke-miterlimit="4" stroke-width="1.3333" d="M22.569 22.719l4.631 4.48M25.707 15.253c0 5.773-4.68 10.453-10.453 10.453s-10.453-4.68-10.453-10.453c0-5.773 4.68-10.453 10.453-10.453s10.453 4.68 10.453 10.453z"></path>
</symbol>
<symbol id="icon-arrow-up" viewBox="0 0 19 32">
<title>arrow-up</title>
<path fill="none" stroke="#009edb" stroke-linejoin="miter" stroke-linecap="round" stroke-miterlimit="4" stroke-width="1.6842" d="M9.263 30.316v-28.632M9.263 1.684l-7.579 7.579M9.263 1.684l7.579 7.579"></path>
</symbol>
<symbol id="icon-pullup" viewBox="0 0 58 32">
<title>pullup</title>
<path d="M29.091 0.963l29.091 27.143-2.088 1.948-27.003-25.195-27.003 25.195-2.088-1.948 29.091-27.143z"></path>
</symbol>
<symbol id="icon-arrow-down" viewBox="0 0 57 32">
<title>arrow-down</title>
<path d="M27.187 23.884l23.884-23.884 2.514 2.514-26.398 26.399-23.884-23.884 2.514-2.514 21.37 21.37z"></path>
</symbol>
<symbol id="icon-download" viewBox="0 0 32 32">
<title>download</title>
<path d="M23 14l-8 8-8-8h5v-12h6v12zM15 22h-15v8h30v-8h-15zM28 26h-4v-2h4v2z"></path>
</symbol>
<symbol id="icon-upload" viewBox="0 0 32 32">
<title>upload</title>
<path d="M15 22h-15v8h30v-8h-15zM28 26h-4v-2h4v2zM7 10l8-8 8 8h-5v10h-6v-10z"></path>
</symbol>
<symbol id="icon-open" viewBox="0 0 32 32">
<title>open</title>
<path d="M31 12h-11v-11c0-0.552-0.448-1-1-1h-6c-0.552 0-1 0.448-1 1v11h-11c-0.552 0-1 0.448-1 1v6c0 0.552 0.448 1 1 1h11v11c0 0.552 0.448 1 1 1h6c0.552 0 1-0.448 1-1v-11h11c0.552 0 1-0.448 1-1v-6c0-0.552-0.448-1-1-1z"></path>
</symbol>
<symbol id="icon-close" viewBox="0 0 32 32">
<title>close</title>
<path d="M0 13v6c0 0.552 0.448 1 1 1h30c0.552 0 1-0.448 1-1v-6c0-0.552-0.448-1-1-1h-30c-0.552 0-1 0.448-1 1z"></path>
</symbol>
<symbol id="icon-checkbox-checked" viewBox="0 0 32 32">
<title>checkbox-checked</title>
<path d="M28 0h-24c-2.2 0-4 1.8-4 4v24c0 2.2 1.8 4 4 4h24c2.2 0 4-1.8 4-4v-24c0-2.2-1.8-4-4-4zM14 24.828l-7.414-7.414 2.828-2.828 4.586 4.586 9.586-9.586 2.828 2.828-12.414 12.414z"></path>
</symbol>
<symbol id="icon-checkbox-unchecked" viewBox="0 0 32 32">
<title>checkbox-unchecked</title>
<path d="M28 0h-24c-2.2 0-4 1.8-4 4v24c0 2.2 1.8 4 4 4h24c2.2 0 4-1.8 4-4v-24c0-2.2-1.8-4-4-4zM28 28h-24v-24h24v24z"></path>
</symbol>
</defs>
</svg>
