<svg width="32" height="32" viewBox="0 0 32 32" fill="none" xmlns="http://www.w3.org/2000/svg">
<g clip-path="url(#clip0_1364_16267)">
<path d="M23.0449 3.34625H9.07918C5.91267 3.34625 3.3457 5.91322 3.3457 9.07973V23.0455C3.3457 26.212 5.91267 28.7789 9.07918 28.7789H23.0449C26.2114 28.7789 28.7784 26.212 28.7784 23.0455V9.07973C28.7784 5.91322 26.2114 3.34625 23.0449 3.34625Z" fill="#222222"/>
<path d="M24.5399 14.8645C24.5399 11.0702 20.7361 7.98334 16.0605 7.98334C11.3848 7.98334 7.58105 11.0702 7.58105 14.8645C7.58105 18.2661 10.598 21.1145 14.6728 21.6534C14.9486 21.713 15.3245 21.8354 15.4199 22.0715C15.5057 22.286 15.4755 22.6214 15.4477 22.8384C15.4477 22.8384 15.3484 23.4369 15.3269 23.564C15.2895 23.7786 15.1568 24.4025 16.0613 24.021C16.9665 23.6395 20.9443 21.1455 22.723 19.0982C23.9518 17.7503 24.5407 16.3833 24.5407 14.8645H24.5399Z" fill="white"/>
<path d="M21.7179 17.0556H19.336C19.2462 17.0556 19.1738 16.9833 19.1738 16.8935V16.8911V13.197V13.193C19.1738 13.1032 19.2462 13.0309 19.336 13.0309H21.7179C21.8069 13.0309 21.88 13.104 21.88 13.193V13.7947C21.88 13.8845 21.8077 13.9568 21.7179 13.9568H20.0989V14.5815H21.7179C21.8069 14.5815 21.88 14.6546 21.88 14.7436V15.3453C21.88 15.4351 21.8077 15.5074 21.7179 15.5074H20.0989V16.1321H21.7179C21.8069 16.1321 21.88 16.2052 21.88 16.2942V16.8959C21.88 16.9857 21.8077 17.058 21.7179 17.058V17.0556Z" fill="#222222"/>
<path d="M12.9062 17.0559C12.9952 17.0559 13.0683 16.9835 13.0683 16.8937V16.2921C13.0683 16.2031 12.9952 16.1299 12.9062 16.1299H11.2872V13.1925C11.2872 13.1035 11.2141 13.0303 11.1251 13.0303H10.5235C10.4337 13.0303 10.3613 13.1027 10.3613 13.1925V16.8905V16.8937C10.3613 16.9835 10.4337 17.0559 10.5235 17.0559H12.9054H12.9062Z" fill="#222222"/>
<path d="M14.3401 13.0309H13.7393C13.6497 13.0309 13.5771 13.1035 13.5771 13.193V16.8935C13.5771 16.983 13.6497 17.0556 13.7393 17.0556H14.3401C14.4297 17.0556 14.5023 16.983 14.5023 16.8935V13.193C14.5023 13.1035 14.4297 13.0309 14.3401 13.0309Z" fill="#222222"/>
<path d="M18.4342 13.0309H17.8326C17.7427 13.0309 17.6704 13.1032 17.6704 13.193V15.3906L15.9776 13.104C15.9736 13.0984 15.9688 13.0929 15.9648 13.0873H15.964C15.9609 13.0825 15.9577 13.0794 15.9545 13.0762L15.9513 13.0738C15.9513 13.0738 15.9458 13.069 15.9426 13.0666C15.941 13.0659 15.9394 13.0643 15.9378 13.0635C15.9354 13.0611 15.9323 13.0595 15.9291 13.0579C15.9275 13.0571 15.9259 13.0555 15.9243 13.0547C15.9211 13.0531 15.9187 13.0515 15.9156 13.05C15.914 13.0492 15.9124 13.0484 15.9108 13.0476C15.9076 13.046 15.9044 13.0444 15.9013 13.0436L15.8957 13.042C15.8957 13.042 15.8893 13.0396 15.8862 13.0388C15.8846 13.0388 15.8822 13.038 15.8806 13.0372C15.8774 13.0372 15.8742 13.0357 15.8711 13.0349C15.8687 13.0349 15.8663 13.0349 15.8639 13.0341C15.8607 13.0341 15.8583 13.0333 15.8552 13.0333C15.852 13.0333 15.8496 13.0333 15.8464 13.0333C15.8448 13.0333 15.8424 13.0333 15.8409 13.0333H15.2432C15.1542 13.0333 15.0811 13.1056 15.0811 13.1954V16.8959C15.0811 16.9849 15.1534 17.058 15.2432 17.058H15.8448C15.9346 17.058 16.007 16.9857 16.007 16.8959V14.6983L17.7022 16.988C17.7141 17.0047 17.7284 17.0183 17.7443 17.0286L17.7459 17.0302C17.7459 17.0302 17.7523 17.0341 17.7563 17.0365C17.7578 17.0373 17.7594 17.0381 17.761 17.0389C17.7634 17.0405 17.7666 17.0413 17.769 17.0429C17.7714 17.0445 17.7745 17.0453 17.7769 17.0461C17.7785 17.0461 17.7801 17.0477 17.7817 17.0477C17.7857 17.0492 17.7888 17.05 17.7928 17.0508H17.7952C17.8087 17.0548 17.823 17.0572 17.8373 17.0572H18.435C18.524 17.0572 18.5971 16.9849 18.5971 16.8951V13.1946C18.5971 13.1056 18.5248 13.0325 18.435 13.0325L18.4342 13.0309Z" fill="#222222"/>
</g>
<defs>
<clipPath id="clip0_1364_16267">
<rect width="25.4327" height="25.4327" fill="white" transform="translate(3.3457 3.34637)"/>
</clipPath>
</defs>
</svg>
