<svg width="32" height="32" viewBox="0 0 32 32" fill="none" xmlns="http://www.w3.org/2000/svg">
<g clip-path="url(#clip0_1364_16268)">
<path d="M28.6663 15.9999C28.6663 9.00425 22.9953 3.33319 15.9997 3.33319C9.00406 3.33319 3.33301 9.00425 3.33301 15.9999C3.33301 22.3221 7.965 27.5624 14.0205 28.5126V19.6613H10.8044V15.9999H14.0205V13.2092C14.0205 10.0346 15.9116 8.28111 18.8049 8.28111C20.1908 8.28111 21.6403 8.5285 21.6403 8.5285V11.6457H20.0431C18.4697 11.6457 17.9788 12.6222 17.9788 13.6239V15.9999H21.4919L20.9303 19.6613H17.9788V28.5126C24.0343 27.5624 28.6663 22.3223 28.6663 15.9999Z" fill="#222222"/>
<path d="M20.9316 19.6613L21.4932 15.9998H17.9801V13.6238C17.9801 12.6221 18.471 11.6457 20.0444 11.6457H21.6416V8.52846C21.6416 8.52846 20.1921 8.28107 18.8062 8.28107C15.9129 8.28107 14.0218 10.0346 14.0218 13.2092V15.9998H10.8057V19.6613H14.0218V28.5126C14.6668 28.6138 15.3276 28.6665 16.001 28.6665C16.6744 28.6665 17.3352 28.6138 17.9801 28.5126V19.6613H20.9316Z" fill="white"/>
</g>
<defs>
<clipPath id="clip0_1364_16268">
<rect width="25.3333" height="25.3333" fill="white" transform="translate(3.33301 3.33331)"/>
</clipPath>
</defs>
</svg>
